<svg xmlns="http://www.w3.org/2000/svg" xmlns:xlink="http://www.w3.org/1999/xlink" width="584" height="113" version="1.1" viewBox="0 0 584 113"><title>Group 8</title><desc>Created with Sketch.</desc><g id="Welcome" fill="none" fill-rule="evenodd" stroke="none" stroke-width="1"><g id="Detail" transform="translate(-419.000000, -147.000000)"><g id="Group-8" transform="translate(419.000000, 147.000000)"><circle id="Oval-5" cx="109" cy="56" r="4" fill="#B7BFFF" fill-rule="nonzero"/><circle id="Oval-5-Copy-5" cx="47.5" cy="42.5" r="1.5" fill="#6471D4" fill-rule="nonzero"/><circle id="Oval-5-Copy-6" cx="144.5" cy="30.5" r="1.5" fill="#6471D4" fill-rule="nonzero"/><circle id="Oval-5-Copy-4" cx="158" cy="43" r="6" fill-rule="nonzero" stroke="#6471D4" stroke-width="2"/><circle id="Oval-5-Copy-2" cx="13.5" cy="32.5" r="13.5" fill="#E4EBF0" fill-rule="nonzero"/><circle id="Oval-5-Copy" cx="27" cy="29" r="6" fill-rule="nonzero" stroke="#2E3562" stroke-width="2"/><g id="Group-3" fill="#6471D4" fill-rule="nonzero" transform="translate(58.000000, 70.000000)"><rect id="Rectangle-8" width="2" height="13" x="5" y="-1" rx="1" transform="translate(6.000000, 5.500000) rotate(45.000000) translate(-6.000000, -5.500000)"/><rect id="Rectangle-8" width="2" height="13" x="5" y="-1" rx="1" transform="translate(6.000000, 5.500000) scale(1, -1) rotate(45.000000) translate(-6.000000, -5.500000)"/></g><g id="Group-3-Copy" fill="#6471D4" fill-rule="nonzero" transform="translate(95.000000, 29.500000) scale(1, -1) translate(-95.000000, -29.500000) translate(91.000000, 25.000000)"><rect id="Rectangle-8" width="2" height="9" x="3" y="0" rx="1" transform="translate(4.000000, 4.500000) rotate(45.000000) translate(-4.000000, -4.500000)"/><rect id="Rectangle-8" width="2" height="9" x="3" y="0" rx="1" transform="translate(4.000000, 4.500000) scale(1, -1) rotate(45.000000) translate(-4.000000, -4.500000)"/></g><circle id="Oval-5-Copy-5" cx="152" cy="84" r="3" fill="#6471D4" fill-rule="nonzero" transform="translate(152.000000, 84.000000) scale(1, -1) translate(-152.000000, -84.000000)"/><g id="Group-4" fill-rule="nonzero" transform="translate(500.000000, 53.000000) scale(1, -1) translate(-500.000000, -53.000000) translate(417.000000, 19.000000)"><circle id="Oval-5" cx="111" cy="37" r="4" fill="#B7BFFF" transform="translate(111.000000, 37.000000) scale(1, -1) translate(-111.000000, -37.000000)"/><circle id="Oval-5-Copy-3" cx="1.5" cy="42.5" r="1.5" fill="#6471D4" transform="translate(1.500000, 42.500000) scale(1, -1) translate(-1.500000, -42.500000)"/><circle id="Oval-5-Copy-5" cx="49.5" cy="23.5" r="1.5" fill="#6471D4" transform="translate(49.500000, 23.500000) scale(1, -1) translate(-49.500000, -23.500000)"/><circle id="Oval-5-Copy-6" cx="146.5" cy="11.5" r="1.5" fill="#6471D4" transform="translate(146.500000, 11.500000) scale(1, -1) translate(-146.500000, -11.500000)"/><circle id="Oval-5-Copy-4" cx="160" cy="24" r="6" stroke="#6471D4" stroke-width="2" transform="translate(160.000000, 24.000000) scale(1, -1) translate(-160.000000, -24.000000)"/><circle id="Oval-5-Copy-2" cx="15.5" cy="13.5" r="13.5" fill="#E4EBF0" transform="translate(15.500000, 13.500000) scale(1, -1) translate(-15.500000, -13.500000)"/><circle id="Oval-5-Copy" cx="29" cy="10" r="6" stroke="#2E3562" stroke-width="2" transform="translate(29.000000, 10.000000) scale(1, -1) translate(-29.000000, -10.000000)"/><g id="Group-3" fill="#6471D4" transform="translate(66.000000, 56.500000) scale(1, -1) translate(-66.000000, -56.500000) translate(60.000000, 51.000000)"><rect id="Rectangle-8" width="2" height="13" x="5" y="-1" rx="1" transform="translate(6.000000, 5.500000) rotate(45.000000) translate(-6.000000, -5.500000)"/><rect id="Rectangle-8" width="2" height="13" x="5" y="-1" rx="1" transform="translate(6.000000, 5.500000) scale(1, -1) rotate(45.000000) translate(-6.000000, -5.500000)"/></g><g id="Group-3-Copy" fill="#6471D4" transform="translate(97.000000, 10.500000) scale(1, -1) translate(-97.000000, -10.500000) translate(93.000000, 6.000000)"><rect id="Rectangle-8" width="2" height="9" x="3" y="0" rx="1" transform="translate(4.000000, 4.500000) rotate(45.000000) translate(-4.000000, -4.500000)"/><rect id="Rectangle-8" width="2" height="9" x="3" y="0" rx="1" transform="translate(4.000000, 4.500000) scale(1, -1) rotate(45.000000) translate(-4.000000, -4.500000)"/></g><circle id="Oval-5-Copy-5" cx="154" cy="65" r="3" fill="#6471D4" transform="translate(154.000000, 65.000000) scale(1, -1) translate(-154.000000, -65.000000)"/></g><g id="Group-37" transform="translate(200.000000, 0.000000)"><polygon id="Fill-1" fill="#DCE8EF" points="39.293 79.153 96.667 112.278 153.668 79.153 96.294 46.029"/><polygon id="Fill-2" fill="#F0F5F8" points="134.081 32.632 96.481 54.483 58.635 32.632 96.234 10.781"/><polygon id="Stroke-3" stroke="#6471D4" stroke-width="1.3" points="134.081 32.632 96.481 54.483 58.635 32.632 96.234 10.781"/><polygon id="Fill-4" fill="#F0F5F8" points="134.081 32.632 133.957 76.12 96.356 97.971 96.481 54.483"/><polygon id="Stroke-5" stroke="#6471D4" stroke-width="1.3" points="134.081 32.632 133.957 76.12 96.356 97.971 96.481 54.483"/><polygon id="Fill-6" fill="#F0F5F8" points="96.48 54.483 96.356 97.972 58.511 76.121 58.634 32.632"/><polygon id="Stroke-7" stroke="#6471D4" stroke-width="1.3" points="96.48 54.483 96.356 97.972 58.511 76.121 58.634 32.632"/><polygon id="Fill-8" fill="#F0F5F8" points="78.676 .749 40.777 22.276 58.634 32.632 96.234 10.782"/><polygon id="Stroke-9" stroke="#6471D4" stroke-width="1.3" points="78.676 .749 40.777 22.276 58.634 32.632 96.234 10.782"/><polygon id="Fill-11" fill="#F0F5F8" points="134.134 32.632 96.235 10.781 114.092 .749 151.692 22.6"/><polygon id="Stroke-12" stroke="#6471D4" stroke-width="1.3" points="134.134 32.632 96.235 10.781 114.092 .749 151.692 22.6"/><polygon id="Fill-14" fill="#DCE8EF" points="96.234 10.781 58.634 32.632 96.48 54.482"/><polygon id="Stroke-15" stroke="#6471D4" stroke-width="1.3" points="96.234 10.781 58.634 32.632 96.48 54.482"/><polygon id="Fill-16" fill="#DCE8EF" points="133.982 37.401 96.48 54.482 116.704 71.436 133.575 61.696"/><polygon id="Fill-17" fill="#F0F5F8" points="134.081 32.632 96.481 54.612 116.704 66.54 155.222 44.302"/><polygon id="Stroke-18" stroke="#6471D4" stroke-width="1.3" points="134.081 32.632 96.481 54.612 116.704 66.54 155.222 44.302"/><polygon id="Fill-19" fill="#DCE8EF" points="58.511 37.401 96.846 54.482 75.788 71.436 58.918 61.696"/><polygon id="Fill-20" fill="#F0F5F8" points="74.772 66.896 38.409 44.56 58.634 32.632 96.48 54.482"/><polygon id="Stroke-21" stroke="#6471D4" stroke-width="1.3" points="74.772 66.896 38.409 44.56 58.634 32.632 96.48 54.482"/><g id="Group-36" transform="translate(0.000000, 2.278000)"><path id="Fill-22" fill="#6471D4" d="M88.2348,19.9711 C88.2348,24.8671 84.2668,28.8351 79.3718,28.8351 C74.4768,28.8351 70.5078,24.8671 70.5078,19.9711 C70.5078,15.0761 74.4768,11.1081 79.3718,11.1081 C84.2668,11.1081 88.2348,15.0761 88.2348,19.9711"/><path id="Fill-24" fill="#6471D4" d="M112.9736,33.4745 C112.9736,36.6455 110.4026,39.2175 107.2306,39.2175 C104.0596,39.2175 101.4886,36.6455 101.4886,33.4745 C101.4886,30.3035 104.0596,27.7315 107.2306,27.7315 C110.4026,27.7315 112.9736,30.3035 112.9736,33.4745"/><path id="Stroke-26" stroke="#2E3562" d="M172.1918,32.5697 C172.1918,33.7937 171.1998,34.7857 169.9758,34.7857 C168.7528,34.7857 167.7598,33.7937 167.7598,32.5697 C167.7598,31.3457 168.7528,30.3537 169.9758,30.3537 C171.1998,30.3537 172.1918,31.3457 172.1918,32.5697 Z"/><path id="Stroke-28" stroke="#2E3562" d="M33.4018,28.8349 C33.4018,30.0589 32.4098,31.0509 31.1858,31.0509 C29.9628,31.0509 28.9698,30.0589 28.9698,28.8349 C28.9698,27.6109 29.9628,26.6189 31.1858,26.6189 C32.4098,26.6189 33.4018,27.6109 33.4018,28.8349 Z"/><path id="Fill-30" fill="#6471D4" d="M191.2026,56.0971 C191.2026,58.0921 189.5856,59.7081 187.5916,59.7081 C185.5976,59.7081 183.9806,58.0921 183.9806,56.0971 C183.9806,54.1031 185.5976,52.4861 187.5916,52.4861 C189.5856,52.4861 191.2026,54.1031 191.2026,56.0971"/><path id="Fill-32" fill="#6471D4" d="M4.7724,51.161 L3.5974,49.986 L4.7724,48.811 C5.0754,48.508 5.0754,48.016 4.7724,47.714 C4.4694,47.411 3.9784,47.411 3.6744,47.714 L2.5004,48.889 L1.3254,47.714 C1.0224,47.411 0.5304,47.411 0.2274,47.714 C-0.0756,48.016 -0.0756,48.508 0.2274,48.811 L1.4024,49.986 L0.2274,51.161 C-0.0756,51.464 -0.0756,51.955 0.2274,52.259 C0.5304,52.562 1.0224,52.562 1.3254,52.259 L2.5004,51.084 L3.6744,52.259 C3.9784,52.562 4.4694,52.562 4.7724,52.259 C5.0754,51.955 5.0754,51.464 4.7724,51.161"/><path id="Fill-34" fill="#6471D4" d="M157.3281,6.3685 L155.4351,4.4755 L157.3281,2.5835 C157.8171,2.0955 157.8171,1.3035 157.3281,0.8155 C156.8401,0.3265 156.0481,0.3265 155.5601,0.8155 L153.6671,2.7075 L151.7751,0.8155 C151.2861,0.3265 150.4951,0.3265 150.0061,0.8155 C149.5181,1.3035 149.5181,2.0955 150.0061,2.5835 L151.8991,4.4755 L150.0061,6.3685 C149.5181,6.8575 149.5181,7.6485 150.0061,8.1375 C150.4951,8.6255 151.2861,8.6255 151.7751,8.1375 L153.6671,6.2445 L155.5601,8.1375 C156.0481,8.6255 156.8401,8.6255 157.3281,8.1375 C157.8171,7.6485 157.8171,6.8575 157.3281,6.3685"/></g></g></g></g></g></svg>